<svg xmlns="http://www.w3.org/2000/svg" width="924.638" height="967.891" viewBox="0 0 924.638 967.891">
  <g id="icons8-instagram_1_" data-name="icons8-instagram (1)" transform="translate(18.5 18.5)" opacity="0.054">
    <path id="Tracciato_7" data-name="Tracciato 7" d="M256.4,924.391H631.241c137.993,0,249.9-117.438,249.9-262.255V268.755c0-144.843-111.9-262.255-249.9-262.255H256.4C118.379,6.5,6.5,123.911,6.5,268.755V662.137C6.5,806.954,118.379,924.391,256.4,924.391Z" fill="none" stroke="#2945ff" stroke-miterlimit="10" stroke-width="50"/>
    <path id="Tracciato_8" data-name="Tracciato 8" d="M307.521,15.5C146.257,15.5,15.5,146.257,15.5,307.521S146.257,599.542,307.521,599.542,599.542,468.785,599.542,307.521,468.785,15.5,307.521,15.5Z" transform="translate(136.298 157.925)" fill="none" stroke="#2945ff" stroke-miterlimit="10" stroke-width="50"/>
    <path id="Tracciato_9" data-name="Tracciato 9" d="M76.66,12a44.66,44.66,0,1,0,44.66,44.66A44.648,44.648,0,0,0,76.66,12Z" transform="translate(649.92 117.071)" fill="#2945ff"/>
  </g>
</svg>
