<svg xmlns="http://www.w3.org/2000/svg" xmlns:xlink="http://www.w3.org/1999/xlink" width="110" height="110" viewBox="0 0 110 110">
  <defs>
    <radialGradient id="radial-gradient" cx="0.31" cy="0.876" r="0.505" gradientTransform="translate(1.572 1.7) rotate(135) scale(1 1.685)" gradientUnits="objectBoundingBox">
      <stop offset="0" stop-color="#4e00ff"/>
      <stop offset="1" stop-color="#7c71fc"/>
    </radialGradient>
    <filter id="Ellisse_10" x="0" y="0" width="110" height="110" filterUnits="userSpaceOnUse">
      <feOffset dy="3" input="SourceAlpha"/>
      <feGaussianBlur stdDeviation="5" result="blur"/>
      <feFlood flood-color="#88b1ff" flood-opacity="0.435"/>
      <feComposite operator="in" in2="blur"/>
      <feComposite in="SourceGraphic"/>
    </filter>
    <clipPath id="clip-path">
      <rect id="Rettangolo_22" data-name="Rettangolo 22" width="56" height="56" transform="translate(694 1611.083)" fill="#fff" stroke="#707070" stroke-width="1"/>
    </clipPath>
  </defs>
  <g id="Raggruppa_18" data-name="Raggruppa 18" transform="translate(-691 -1501)">
    <g transform="matrix(1, 0, 0, 1, 691, 1501)" filter="url(#Ellisse_10)">
      <circle id="Ellisse_10-2" data-name="Ellisse 10" cx="40" cy="40" r="40" transform="translate(15 12)" fill="url(#radial-gradient)"/>
    </g>
    <g id="Gruppo_di_maschere_1" data-name="Gruppo di maschere 1" transform="translate(24 -88.083)" clip-path="url(#clip-path)">
      <g id="surface10697938" transform="translate(698.006 1611)">
        <path id="Tracciato_19" data-name="Tracciato 19" d="M37.179,4.678a4.119,4.119,0,0,0-1.753.483,4.96,4.96,0,0,0-2.191,2.8l0,0c-.1.282-.047.151-.068.219s-.047.157-.078.269c-.065.222-.151.529-.256.895-.209.73-.482,1.69-.754,2.645-.543,1.909-1.082,3.8-1.082,3.8V15.8a4.258,4.258,0,0,1-.334.913s0,0,0,.005c-1.972,3.073-4.095,6.168-6.155,9.3H15.3a6.041,6.041,0,0,0-6.009,6.009V53.39A6.041,6.041,0,0,0,15.3,59.4h5.342a5.977,5.977,0,0,0,4.291-1.841c3.083.668,6.523,1.406,9.324,2,1.468.31,2.76.579,3.732.775a17.946,17.946,0,0,0,1.974.363c.412.039.819.06,1.223.06a12.672,12.672,0,0,0,12.235-9.538c1.119-4.324,3.409-13.286,3.419-13.325a12.609,12.609,0,0,0,.506-2.715v0a8.665,8.665,0,0,0-2.329-6.435v0a8.826,8.826,0,0,0-6.414-2.72H43.3c.469-1.68.934-3.3,1.27-4.619v0a20.221,20.221,0,0,0,.506-8.7v0a11.542,11.542,0,0,0-2.11-5.143,7.355,7.355,0,0,0-4-2.679h-.005A5.943,5.943,0,0,0,37.179,4.678Zm.263,3.988a2.284,2.284,0,0,1,.54.083A3.125,3.125,0,0,1,39.79,9.989,7.72,7.72,0,0,1,41.131,13.4a16.012,16.012,0,0,1-.446,7c-.482,1.881-1.943,7.071-1.943,7.071a2,2,0,0,0,1.927,2.546H48.6A4.708,4.708,0,0,1,52.1,31.488a4.561,4.561,0,0,1,1.239,3.469,9.35,9.35,0,0,1-.37,1.883l-.008.029S50.656,45.894,49.54,50.21a8.6,8.6,0,0,1-8.357,6.536c-.276,0-.558-.016-.837-.042h0c.305.029-.613-.107-1.565-.3s-2.235-.462-3.7-.769c-2.556-.54-5.652-1.205-8.518-1.826.01-.146.086-.271.086-.42V30.036c2.366-3.693,4.948-7.363,7.381-11.155l0,0a6.906,6.906,0,0,0,.819-2c0-.005.537-1.888,1.08-3.792.271-.955.543-1.909.751-2.637l.256-.887c.031-.11.055-.2.073-.253.209-.579.35-.644.331-.634S37.351,8.666,37.443,8.666ZM15.3,30.02h7.345V53.39a1.974,1.974,0,0,1-2,2H15.3a1.974,1.974,0,0,1-2-2V32.023A1.974,1.974,0,0,1,15.3,30.02Zm0,0" transform="translate(-9.287 -4.67)" fill="#fff"/>
      </g>
    </g>
  </g>
</svg>
