<svg xmlns="http://www.w3.org/2000/svg" xmlns:xlink="http://www.w3.org/1999/xlink" width="110" height="110" viewBox="0 0 110 110">
  <defs>
    <radialGradient id="radial-gradient" cx="0.31" cy="0.876" r="0.505" gradientTransform="translate(1.572 1.7) rotate(135) scale(1 1.685)" gradientUnits="objectBoundingBox">
      <stop offset="0" stop-color="#4e00ff"/>
      <stop offset="1" stop-color="#7c71fc"/>
    </radialGradient>
    <filter id="Ellisse_3" x="0" y="0" width="110" height="110" filterUnits="userSpaceOnUse">
      <feOffset dy="3" input="SourceAlpha"/>
      <feGaussianBlur stdDeviation="5" result="blur"/>
      <feFlood flood-color="#88b1ff" flood-opacity="0.435"/>
      <feComposite operator="in" in2="blur"/>
      <feComposite in="SourceGraphic"/>
    </filter>
  </defs>
  <g id="Raggruppa_15" data-name="Raggruppa 15" transform="translate(-658 -2119)">
    <g transform="matrix(1, 0, 0, 1, 658, 2119)" filter="url(#Ellisse_3)">
      <circle id="Ellisse_3-2" data-name="Ellisse 3" cx="40" cy="40" r="40" transform="translate(15 12)" fill="url(#radial-gradient)"/>
    </g>
    <g id="icons8-tiktok" transform="translate(692 2150.276)">
      <path id="Tracciato_13" data-name="Tracciato 13" d="M33.509,37.724H8.216A4.214,4.214,0,0,1,4,33.509V8.216A4.214,4.214,0,0,1,8.216,4H33.509a4.214,4.214,0,0,1,4.216,4.216V33.509A4.214,4.214,0,0,1,33.509,37.724Z" fill="none" stroke="#fff" stroke-miterlimit="10" stroke-width="4"/>
      <path id="Tracciato_14" data-name="Tracciato 14" d="M17.431,16.216A4.216,4.216,0,1,1,13.216,12" transform="translate(5.539 8.862)" fill="none" stroke="#fff" stroke-width="4"/>
      <line id="Linea_3" data-name="Linea 3" y1="15" transform="translate(23 9.724)" fill="none" stroke="#fff" stroke-width="4"/>
      <path id="Tracciato_15" data-name="Tracciato 15" d="M19.323,13.323C17.216,13.323,13,10.461,13,7" transform="translate(9.97 3.323)" fill="none" stroke="#fff" stroke-width="4"/>
    </g>
  </g>
</svg>
